<svg width="201" height="39" viewBox="0 0 201 39" fill="none" xmlns="http://www.w3.org/2000/svg">
<path d="M46.7967 31H56.4628C61.3837 31 64.3714 28.5076 64.3714 24.4494V24.4175C64.3714 21.3818 62.1666 19.1131 58.9232 18.8255V18.7297C61.3837 18.3941 63.253 16.1893 63.253 13.7288V13.6969C63.253 10.1979 60.5529 7.94517 56.3669 7.94517H46.7967V31ZM55.3284 11.1565C57.7729 11.1565 59.1789 12.2749 59.1789 14.2561V14.288C59.1789 16.413 57.5652 17.6272 54.6893 17.6272H50.9188V11.1565H55.3284ZM55.3444 20.6149C58.5078 20.6149 60.1695 21.8452 60.1695 24.1778V24.2098C60.1695 26.5584 58.5398 27.7886 55.5201 27.7886H50.9188V20.6149H55.3444ZM66.9118 31H70.89V21.0783C70.89 18.6977 72.2481 17.2438 74.5008 17.2438C75.1719 17.2438 75.779 17.3397 76.1145 17.4675V13.8726C75.811 13.7928 75.3476 13.7129 74.8523 13.7129C72.8552 13.7129 71.3693 14.9111 70.8581 16.8923H70.7782V14.0644H66.9118V31ZM80.2685 11.6359C81.5147 11.6359 82.4734 10.6453 82.4734 9.46298C82.4734 8.24873 81.5147 7.27413 80.2685 7.27413C79.0223 7.27413 78.0477 8.24873 78.0477 9.46298C78.0477 10.6453 79.0223 11.6359 80.2685 11.6359ZM78.2714 31H82.2497V14.0644H78.2714V31ZM91.9318 31.3355C94.3762 31.3355 96.2456 30.1213 97.2042 28.1241H97.3V31H101.278V7.94517H97.3V16.9722H97.2042C96.2456 14.9431 94.3123 13.7129 91.9158 13.7129C87.6659 13.7129 84.9338 17.0521 84.9338 22.5162V22.5322C84.9338 27.9803 87.6499 31.3355 91.9318 31.3355ZM93.13 27.9803C90.5737 27.9803 88.992 25.9033 88.992 22.5322V22.5162C88.992 19.1451 90.5897 17.068 93.13 17.068C95.5745 17.068 97.3 19.209 97.3 22.5162V22.5322C97.3 25.8554 95.5905 27.9803 93.13 27.9803ZM112.255 36.9275C117.159 36.9275 120.243 34.3552 120.243 30.5207V14.0644H116.265V16.9402H116.169C115.21 14.991 113.357 13.7129 110.96 13.7129C106.679 13.7129 103.915 17.0041 103.915 22.3564V22.3724C103.915 27.6448 106.647 30.9041 110.896 30.9041C113.325 30.9041 115.242 29.7538 116.185 27.9484H116.265V30.3929C116.265 32.5498 114.843 33.9238 112.255 33.9238C110.178 33.9238 108.819 33.1889 108.388 32.2143L108.34 32.0864H104.426L104.458 32.2302C104.937 34.8824 107.765 36.9275 112.255 36.9275ZM112.143 27.8366C109.586 27.8366 107.973 25.7755 107.973 22.4363V22.4203C107.973 19.1291 109.586 17.068 112.143 17.068C114.603 17.068 116.281 19.161 116.281 22.4363V22.4523C116.281 25.7436 114.619 27.8366 112.143 27.8366ZM130.948 31.3355C135.373 31.3355 137.866 28.7153 138.393 26.111L138.441 25.9353H134.718L134.686 26.0471C134.303 27.1815 133.009 28.236 131.028 28.236C128.439 28.236 126.81 26.4785 126.746 23.5068H138.601V22.2286C138.601 17.116 135.597 13.7129 130.756 13.7129C125.915 13.7129 122.799 17.2278 122.799 22.5641V22.5801C122.799 27.9644 125.867 31.3355 130.948 31.3355ZM130.804 16.8284C132.913 16.8284 134.447 18.1705 134.734 20.8546H126.794C127.113 18.2503 128.695 16.8284 130.804 16.8284ZM147.787 31.3355C151.941 31.3355 154.897 29.1946 154.897 25.9992V25.9832C154.897 23.5228 153.539 22.1487 150.04 21.3659L147.212 20.7428C145.455 20.3433 144.8 19.7042 144.8 18.7297V18.7137C144.8 17.4675 145.902 16.6526 147.66 16.6526C149.513 16.6526 150.599 17.6432 150.775 19.0013L150.791 19.1291H154.498L154.482 18.9533C154.338 16.0295 151.878 13.7129 147.66 13.7129C143.569 13.7129 140.869 15.8059 140.869 18.9054V18.9214C140.869 21.4298 142.499 23.0115 145.742 23.7305L148.554 24.3536C150.312 24.753 150.903 25.3282 150.903 26.3507V26.3667C150.903 27.6129 149.737 28.3957 147.803 28.3957C145.79 28.3957 144.688 27.533 144.384 26.0791L144.352 25.9353H140.438L140.454 26.0791C140.805 29.2266 143.346 31.3355 147.787 31.3355ZM157.438 36.592H161.416V28.1401H161.496C162.454 30.1213 164.388 31.3355 166.8 31.3355C171.05 31.3355 173.766 27.9803 173.766 22.5482V22.5322C173.766 17.068 171.05 13.7129 166.752 13.7129C164.324 13.7129 162.47 14.9591 161.496 16.9882H161.416V14.0644H157.438V36.592ZM165.57 27.9803C163.109 27.9803 161.384 25.8554 161.384 22.5482V22.5322C161.384 19.209 163.109 17.068 165.57 17.068C168.11 17.068 169.708 19.1451 169.708 22.5322V22.5482C169.708 25.8874 168.11 27.9803 165.57 27.9803ZM176.434 31H180.412V7.94517H176.434V31ZM185.909 11.6359C187.155 11.6359 188.113 10.6453 188.113 9.46298C188.113 8.24873 187.155 7.27413 185.909 7.27413C184.662 7.27413 183.688 8.24873 183.688 9.46298C183.688 10.6453 184.662 11.6359 185.909 11.6359ZM183.911 31H187.89V14.0644H183.911V31ZM197.572 31.3355C198.371 31.3355 199.074 31.2556 199.537 31.1917V28.204C199.265 28.22 198.962 28.2679 198.578 28.2679C197.124 28.2679 196.389 27.7407 196.389 26.0791V17.132H199.537V14.0644H196.389V9.76655H192.347V14.0644H189.951V17.132H192.347V26.4146C192.347 29.8976 194.025 31.3355 197.572 31.3355Z" fill="#121219"/>
<path fill-rule="evenodd" clip-rule="evenodd" d="M20.0954 15.9803C20.3248 16.2059 20.3248 16.5716 20.0954 16.7972L6.44884 30.2148C6.33867 30.3231 6.18925 30.384 6.03345 30.384H0.588631C0.0653553 30.384 -0.196787 29.762 0.173107 29.3981L16.5369 13.2986C16.7663 13.0729 17.1384 13.0729 17.3678 13.2985L20.0954 15.9803Z" fill="#121219"/>
<path fill-rule="evenodd" clip-rule="evenodd" d="M13.8034 15.9913C13.5757 16.2157 13.5745 16.5785 13.8007 16.8044L27.2256 30.2116C27.336 30.3219 27.4868 30.384 27.6442 30.384H33.295C33.8182 30.384 34.0804 29.7622 33.7107 29.3982L17.3621 13.3027C17.1325 13.0767 16.76 13.0768 16.5305 13.303L13.8034 15.9913Z" fill="#121219"/>
<path fill-rule="evenodd" clip-rule="evenodd" d="M0.0522075 6.42086C0.0522075 6.10186 0.315219 5.84326 0.639661 5.84326H33.3021C33.6265 5.84326 33.8895 6.10186 33.8895 6.42086V10.1752C33.8895 10.4942 33.6265 10.7528 33.3021 10.7528H0.639661C0.31522 10.7528 0.0522075 10.4942 0.0522075 10.1752V6.42086Z" fill="#121219"/>
</svg>
