<?xml version="1.0" encoding="UTF-8"?>
<svg viewBox="0 0 308 344" version="1.1" xmlns="http://www.w3.org/2000/svg" xmlns:xlink="http://www.w3.org/1999/xlink">
    <title>sharky</title>
    <g id="Page-1" stroke="none" stroke-width="1" fill="none" fill-rule="evenodd">
        <g id="sharky" transform="translate(0.484468, 0.474731)">
            <path d="M175.115532,6.57026927 C171.611532,6.91326927 161.592532,8.90526927 159.115532,9.75226927 C158.235532,10.0522693 156.705532,10.4162693 155.715532,10.5612693 C154.725532,10.7052693 152.809532,11.3412693 151.458532,11.9742693 C150.106532,12.6072693 148.874532,13.1252693 148.718532,13.1252693 C148.446532,13.1252693 146.839532,13.7832693 144.315532,14.9292693 C139.551532,17.0902693 138.540532,17.6122693 138.107532,18.1352693 C137.838532,18.4592693 137.281532,18.7252693 136.871532,18.7252693 C135.281532,18.7252693 124.049532,25.8272693 117.087532,31.2342693 C114.756532,33.0442693 112.069532,35.0652693 111.114532,35.7252693 C110.160532,36.3852693 108.878532,37.5342693 108.266532,38.2792693 C107.654532,39.0232693 106.165532,40.5532693 104.957532,41.6792693 C100.484532,45.8472693 93.9045323,52.7152693 91.0555323,56.1892693 C89.7955323,57.7262693 87.5505323,60.4352693 86.6225323,61.5392693 C84.0665323,64.5792693 76.5295323,75.3782693 75.2555323,77.8252693 C74.9975323,78.3202693 74.5885323,78.7252693 74.3455323,78.7252693 C72.4835323,78.7252693 72.515497,77.5672693 72.515497,145.234269 L72.515497,208.537269 L74.2635323,210.231269 C75.2245323,211.163269 76.1995323,211.925269 76.4305323,211.925269 C76.6605323,211.925269 76.9085323,212.060269 76.9825323,212.225269 C77.4035323,213.173269 83.7815323,217.687269 87.8215323,219.895269 C101.571532,227.412269 111.327532,225.273269 125.715532,211.584269 C127.743532,209.655269 128.535532,209.143269 129.315532,209.257269 C130.555532,209.439269 134.002532,210.062269 138.715532,210.957269 C140.695532,211.332269 143.755532,211.773269 145.515532,211.937269 C147.275532,212.100269 150.335532,212.427269 152.315532,212.663269 C164.446532,214.111269 168.278532,214.367269 180.975532,214.577269 C200.093532,214.892269 207.418532,214.276269 219.915532,211.298269 C221.455532,210.931269 223.181532,210.546269 223.749532,210.442269 C224.555532,210.295269 225.914532,211.013269 229.896532,213.689269 C232.708532,215.579269 235.170532,217.125269 235.366532,217.125269 C235.562532,217.125269 236.620532,217.755269 237.715532,218.525269 C238.810532,219.295269 239.964532,219.925269 240.278532,219.925269 C240.592532,219.925269 241.719532,220.358269 242.782532,220.887269 C243.845532,221.416269 246.155532,222.320269 247.915532,222.895269 C249.675532,223.470269 251.925532,224.208269 252.915532,224.535269 C259.296532,226.641269 271.315532,223.759269 271.315532,220.124269 C271.315532,219.882269 271.518532,219.482269 271.767532,219.233269 C272.337532,218.663269 273.430532,215.507269 274.576532,211.125269 C275.405532,207.952269 275.466532,206.839269 275.487532,194.436269 L275.509532,181.147269 L277.712532,180.115269 C278.924532,179.548269 280.394532,178.778269 280.980532,178.404269 C281.565532,178.031269 282.915532,177.199269 283.980532,176.555269 C285.958532,175.360269 290.226532,172.062269 292.236532,170.176269 C292.852532,169.598269 293.617532,169.125269 293.936532,169.125269 C294.254532,169.125269 294.515532,168.927269 294.515532,168.686269 C294.515532,168.444269 295.910532,166.411269 297.615532,164.169269 C307.059532,151.750269 309.277532,141.401269 305.513532,127.325269 C304.934532,125.158269 304.368532,122.967269 303.498532,119.525269 C302.832532,116.891269 301.925532,113.773269 301.346532,112.125269 C301.115532,111.465269 300.478532,109.575269 299.933532,107.925269 C299.387532,106.275269 298.559532,103.935269 298.093532,102.725269 C297.627532,101.515269 297.103532,99.9852693 296.929532,99.3252693 C296.754532,98.6652693 296.321532,97.5852693 295.966532,96.9252693 C295.610532,96.2652693 295.319532,95.4212693 295.317532,95.0492693 C295.316532,94.6772693 295.151532,94.2712693 294.950532,94.1472693 C294.749532,94.0222693 294.466532,93.2162693 294.320532,92.3542693 C294.174532,91.4932693 293.799532,90.6892693 293.485532,90.5692693 C293.172532,90.4492693 292.915532,90.1442693 292.915532,89.8912693 C292.915532,89.6392693 292.285532,88.0872693 291.515532,86.4432693 C290.745532,84.7992693 290.115532,83.2102693 290.115532,82.9132693 C290.115532,82.6162693 289.940532,82.2642693 289.726532,82.1322693 C289.512532,81.9992693 289.145532,81.1792693 288.910532,80.3082693 C288.676532,79.4372693 288.329532,78.7252693 288.139532,78.7252693 C287.949532,78.7252693 287.595532,78.2302693 287.352532,77.6252693 C287.110532,77.0202693 286.449532,75.7152693 285.885532,74.7252693 C285.320532,73.7352693 284.180532,71.6652693 283.351532,70.1252693 C281.133532,66.0082693 280.567532,65.0592693 277.815532,60.8512693 C276.440532,58.7482693 275.315532,56.9622693 275.315532,56.8822693 C275.315532,56.7282693 269.098532,48.5852693 267.408532,46.5252693 C262.518532,40.5632693 253.052532,31.0602693 249.480532,28.5252693 C248.860532,28.0852693 247.804532,27.2702693 247.134532,26.7132693 C246.463532,26.1572693 245.195532,25.2122693 244.315532,24.6142693 C243.435532,24.0152693 242.106532,22.9852693 241.361532,22.3252693 C240.616532,21.6652693 239.707532,21.1252693 239.341532,21.1252693 C238.975532,21.1252693 238.484532,20.9342693 238.250532,20.7002693 C237.462532,19.9122693 230.262532,16.0942693 226.676532,14.5622693 C224.717532,13.7252693 222.812532,12.8852693 222.442532,12.6962693 C221.744532,12.3392693 218.480532,11.2462693 214.315532,9.97526927 C212.995532,9.57226927 210.565532,8.95726927 208.915532,8.60926927 C207.265532,8.26126927 204.475532,7.67426927 202.715532,7.30426927 C199.633532,6.65626927 179.657532,6.12526927 175.115532,6.57026927 M40.1145323,101.546269 C38.6845323,102.398269 37.3785323,103.102269 37.2115323,103.110269 C37.0445323,103.118269 36.0105323,103.755269 34.9155323,104.525269 C33.8205323,105.295269 32.8435323,105.925269 32.7445323,105.925269 C32.4545323,105.925269 27.1895323,109.553269 26.2895323,110.373269 C25.8355323,110.786269 25.2735323,111.125269 25.0405323,111.125269 C22.2775323,111.125269 6.92053233,129.389269 2.94453233,137.403269 C-2.16346767,147.698269 -0.448467666,156.476269 6.71553233,156.703269 C7.83653233,156.739269 17.0115323,159.753269 23.5155323,162.222269 C25.4955323,162.974269 27.8355323,163.861269 28.7155323,164.194269 C30.3795323,164.823269 33.1475323,166.058269 34.9775323,166.986269 C35.5615323,167.283269 36.2135323,167.525269 36.4265323,167.525269 C36.7735323,167.525269 38.2925323,168.349269 41.7165323,170.395269 C42.8005323,171.043269 42.8455323,171.037269 43.0715323,170.195269 C43.4155323,168.911269 43.3545323,101.005269 43.0085323,100.461269 C42.8035323,100.139269 41.9205323,100.470269 40.1145323,101.546269 M174.567532,116.152269 C178.190532,117.987269 182.515532,123.111269 182.515532,125.566269 C182.515532,126.005269 182.782532,126.882269 183.109532,127.514269 C183.933532,129.107269 184.304532,133.764269 183.765532,135.751269 C182.856532,139.104269 179.724532,140.223269 175.764532,138.610269 C174.967532,138.286269 172.965532,137.626269 171.315532,137.144269 C169.665532,136.662269 167.724532,136.011269 167.001532,135.697269 C166.279532,135.382269 165.395532,135.125269 165.037532,135.125269 C164.281532,135.125269 160.549532,134.075269 158.515532,133.290269 C157.745532,132.993269 156.429532,132.633269 155.592532,132.489269 C152.222532,131.910269 150.477532,128.755269 151.815532,125.661269 C152.474532,124.138269 154.955532,120.725269 155.403532,120.725269 C155.597532,120.725269 156.332532,120.109269 157.035532,119.357269 C161.079532,115.035269 169.372532,113.519269 174.567532,116.152269 M140.701532,156.489269 C141.573532,156.793269 142.353532,157.240269 142.434532,157.483269 C142.515532,157.726269 142.995532,157.925269 143.499532,157.925269 C144.004532,157.925269 144.657532,158.214269 144.950532,158.567269 C145.242532,158.920269 145.850532,159.369269 146.299532,159.566269 C146.748532,159.762269 147.385532,160.077269 147.715532,160.265269 C148.401532,160.656269 151.429532,162.043269 152.915532,162.647269 C153.465532,162.870269 154.725532,163.408269 155.715532,163.842269 C156.705532,164.276269 158.595532,165.049269 159.915532,165.560269 C161.235532,166.071269 162.495532,166.604269 162.715532,166.746269 C162.935532,166.887269 164.735532,167.494269 166.715532,168.094269 C168.695532,168.694269 170.675532,169.335269 171.115532,169.518269 C172.494532,170.093269 175.871532,171.172269 176.915532,171.372269 C177.465532,171.477269 178.815532,171.817269 179.915532,172.128269 C193.257532,175.894269 205.796532,177.220269 226.715532,177.079269 C234.855532,177.024269 243.711532,176.967269 246.395532,176.952269 C252.247532,176.920269 252.921532,177.251269 250.881532,179.157269 C249.121532,180.801269 237.456532,186.325269 235.744532,186.325269 C235.376532,186.325269 234.904532,186.490269 234.695532,186.692269 C234.276532,187.096269 226.338532,189.841269 224.115532,190.351269 C223.345532,190.527269 221.185532,191.111269 219.315532,191.648269 C207.516532,195.037269 193.164532,196.585269 187.515532,195.079269 C186.635532,194.845269 184.835532,194.506269 183.515532,194.326269 C177.909532,193.563269 167.659532,189.166269 160.815532,184.586269 C159.550532,183.740269 158.515532,182.897269 158.515532,182.713269 C158.515532,182.529269 158.200532,182.278269 157.815532,182.155269 C157.085532,181.921269 149.426532,174.619269 147.705532,172.516269 C144.833532,169.006269 143.688532,167.473269 142.039532,164.925269 C137.179532,157.418269 136.817532,155.137269 140.701532,156.489269 M67.3165323,237.723269 C66.9215323,238.200269 66.9445323,238.361269 67.4335323,238.549269 C67.7675323,238.677269 69.1685323,240.434269 70.5465323,242.454269 C73.3265323,246.527269 76.2335323,250.410269 77.2805323,251.447269 C77.6575323,251.820269 78.6745323,253.024269 79.5405323,254.122269 C86.6915323,263.191269 106.987532,280.037269 120.982532,288.520269 C122.579532,289.489269 126.765532,292.328269 127.297532,292.804269 C127.617532,293.091269 128.337532,293.547269 128.897532,293.817269 C130.061532,294.380269 130.173532,294.452269 135.207532,297.825269 C137.259532,299.200269 139.039532,300.325269 139.163532,300.325269 C139.287532,300.325269 139.801532,300.640269 140.306532,301.025269 C141.426532,301.880269 141.552532,301.966269 147.515532,305.888269 C151.686532,308.632269 155.068532,311.635269 157.593532,314.838269 C157.857532,315.172269 159.455532,317.218269 161.146532,319.385269 C162.836532,321.552269 164.340532,323.415269 164.489532,323.525269 C164.637532,323.635269 165.820532,325.075269 167.118532,326.725269 C174.845532,336.547269 184.277532,343.937269 187.838532,342.959269 C189.413532,342.527269 192.115532,339.470269 192.115532,338.121269 C192.115532,337.771269 192.360532,336.999269 192.659532,336.405269 C193.631532,334.474269 196.104532,322.174269 196.133532,319.125269 C196.142532,318.135269 196.317532,316.515269 196.521532,315.525269 C196.726532,314.535269 197.086532,311.480269 197.322532,308.736269 C198.129532,299.344269 198.915532,297.752269 205.234532,292.693269 C208.438532,290.128269 212.217532,286.845269 216.172532,283.188269 C218.435532,281.097269 222.915532,275.900269 222.915532,275.366269 C222.915532,275.218269 223.230532,274.616269 223.615532,274.029269 C226.262532,269.988269 225.859532,266.082269 222.629532,264.477269 C220.635532,263.487269 205.553532,263.475269 201.315532,264.460269 C199.885532,264.793269 197.545532,265.184269 196.115532,265.329269 C194.685532,265.474269 192.255532,265.840269 190.715532,266.142269 C185.352532,267.192269 181.148532,267.092269 180.055532,265.889269 C178.863532,264.575269 177.315532,262.436269 177.315532,262.102269 C177.315532,261.961269 177.073532,261.279269 176.777532,260.585269 C174.527532,255.315269 173.937532,246.504269 175.489532,241.375269 C176.012532,239.650269 176.078532,238.950269 175.740532,238.741269 C175.487532,238.584269 161.574532,238.335269 144.821532,238.187269 C113.023532,237.906269 93.2265323,237.654269 77.2615323,237.325269 C69.2365323,237.160269 67.7345323,237.221269 67.3165323,237.723269" id="path0" fill="#F43C5C"></path>
            <path d="M53.6495323,0.73826927 C50.1795323,1.86226927 46.1155323,4.87326927 46.1155323,6.32226927 C46.1155323,6.54326927 45.7935323,7.04726927 45.3995323,7.44126927 C45.0065323,7.83426927 44.2625323,8.95926927 43.7465323,9.94126927 L42.8085323,11.7252693 L43.0915323,90.5252693 C43.2465323,133.865269 43.2255323,169.719269 43.0445323,170.200269 C42.8635323,170.682269 42.8055323,183.642269 42.9155323,199.000269 L43.1155323,226.925269 L44.2695323,229.239269 C46.4745323,233.663269 50.1835323,236.584269 55.0535323,237.733269 C58.5835323,238.565269 66.6425323,238.536269 67.3455323,237.689269 C67.8045323,237.136269 68.7435323,237.083269 74.4945323,237.284269 C78.1365323,237.411269 91.2855323,237.632269 103.715532,237.775269 C146.928532,238.271269 175.599532,238.712269 189.715532,239.098269 C197.525532,239.312269 221.735532,239.541269 243.515532,239.606269 L283.115532,239.725269 L285.816532,238.361269 C289.210532,236.647269 291.375532,234.476269 293.023532,231.136269 L294.312532,228.525269 L294.405532,200.525269 C294.517532,166.902269 294.593532,167.965269 292.236532,170.176269 C290.226532,172.062269 285.958532,175.360269 283.980532,176.555269 C282.915532,177.199269 281.565532,178.031269 280.980532,178.404269 C280.394532,178.778269 278.924532,179.548269 277.712532,180.115269 L275.509532,181.147269 L275.487532,194.436269 C275.466532,206.839269 275.405532,207.952269 274.576532,211.125269 C273.430532,215.507269 272.337532,218.663269 271.767532,219.233269 C271.518532,219.482269 271.315532,219.882269 271.315532,220.124269 C271.315532,223.759269 259.296532,226.641269 252.915532,224.535269 C251.925532,224.208269 249.675532,223.470269 247.915532,222.895269 C246.155532,222.320269 243.845532,221.416269 242.782532,220.887269 C241.719532,220.358269 240.592532,219.925269 240.278532,219.925269 C239.964532,219.925269 238.810532,219.295269 237.715532,218.525269 C236.620532,217.755269 235.562532,217.125269 235.366532,217.125269 C235.170532,217.125269 232.708532,215.579269 229.896532,213.689269 C225.914532,211.013269 224.555532,210.295269 223.749532,210.442269 C223.181532,210.546269 221.455532,210.931269 219.915532,211.298269 C207.418532,214.276269 200.093532,214.892269 180.975532,214.577269 C168.278532,214.367269 164.446532,214.111269 152.315532,212.663269 C150.335532,212.427269 147.275532,212.100269 145.515532,211.937269 C143.755532,211.773269 140.695532,211.332269 138.715532,210.957269 C134.002532,210.062269 130.555532,209.439269 129.315532,209.257269 C128.535532,209.143269 127.743532,209.655269 125.715532,211.584269 C111.327532,225.273269 101.571532,227.412269 87.8215323,219.895269 C83.7815323,217.687269 77.4035323,213.173269 76.9825323,212.225269 C76.9085323,212.060269 76.6385323,211.921269 76.3825323,211.917269 C76.1255323,211.913269 75.1485323,211.137269 74.2115323,210.193269 L72.5085323,208.477269 L72.6215323,144.501269 C72.7835323,53.4482693 72.8715323,34.8402693 73.1455323,33.7482693 C73.4615323,32.4892693 74.1865323,32.2482693 76.2635323,32.7132693 C77.1985323,32.9232693 79.5735323,33.2052693 81.5395323,33.3402693 C83.5065323,33.4752693 86.4125323,33.8422693 87.9985323,34.1552693 C89.5845323,34.4692693 91.8245323,34.7252693 92.9755323,34.7252693 C94.1275323,34.7252693 96.6995323,34.9882693 98.6925323,35.3102693 C109.980532,37.1342693 109.325532,37.2792693 117.094532,31.2342693 C124.023532,25.8432693 135.277532,18.7252693 136.871532,18.7252693 C137.281532,18.7252693 137.838532,18.4592693 138.107532,18.1352693 C138.540532,17.6122693 139.551532,17.0902693 144.315532,14.9292693 C146.952532,13.7322693 148.452532,13.1252693 148.775532,13.1232693 C148.962532,13.1222693 149.971532,12.6872693 151.017532,12.1572693 L152.918532,11.1922693 L150.897532,10.7582693 C149.785532,10.5202693 147.730532,10.3252693 146.330532,10.3252693 C144.931532,10.3252693 142.375532,10.0552693 140.650532,9.72526927 C138.926532,9.39526927 136.586532,9.12526927 135.450532,9.12526927 C134.315532,9.12526927 131.975532,8.85526927 130.250532,8.52526927 C128.526532,8.19526927 126.215532,7.92526927 125.115532,7.92526927 C124.015532,7.92426927 121.675532,7.67426927 119.915532,7.36826927 C118.155532,7.06226927 115.185532,6.69026927 113.315532,6.54126927 C111.445532,6.39126927 108.618532,6.01226927 107.032532,5.69726927 C105.446532,5.38226927 103.116532,5.12526927 101.855532,5.12526927 C100.593532,5.12526927 97.9315323,4.86026927 95.9385323,4.53626927 C93.9455323,4.21226927 90.6055323,3.76626927 88.5155323,3.54526927 C78.8945323,2.53026927 76.5035323,2.23526927 73.5155323,1.69926927 C71.7555323,1.38326927 69.3255323,1.12426927 68.1155323,1.12426927 C66.9055323,1.12426927 64.3855323,0.85426927 62.5155323,0.52526927 C58.2475323,-0.22673073 56.5015323,-0.18473073 53.6495323,0.73826927 M240.925486,21.7782693 C240.931532,21.9692693 241.927532,22.8452693 243.139532,23.7252693 C244.351532,24.6052693 246.024532,25.8652693 246.858532,26.5252693 C247.691532,27.1852693 248.876532,28.0852693 249.490532,28.5252693 C253.110532,31.1172693 262.540532,40.5902693 267.408532,46.5252693 C269.098532,48.5852693 275.315532,56.7282693 275.315532,56.8822693 C275.315532,56.9622693 276.440532,58.7482693 277.815532,60.8512693 C280.567532,65.0592693 281.133532,66.0082693 283.351532,70.1252693 C284.180532,71.6652693 285.320532,73.7352693 285.885532,74.7252693 C286.449532,75.7152693 287.110532,77.0202693 287.352532,77.6252693 C287.595532,78.2302693 287.949532,78.7252693 288.139532,78.7252693 C288.329532,78.7252693 288.676532,79.4372693 288.910532,80.3082693 C289.145532,81.1792693 289.512532,81.9992693 289.726532,82.1322693 C289.940532,82.2642693 290.115532,82.6162693 290.115532,82.9132693 C290.115532,83.2102693 290.721532,84.7752693 291.461532,86.3892693 C292.201532,88.0042693 292.916532,89.6402693 293.048532,90.0252693 C293.409532,91.0692693 293.988532,90.8712693 294.219532,89.6252693 C294.331532,89.0202693 294.392532,77.0952693 294.355532,63.1252693 L294.287532,37.7252693 L293.186532,35.4542693 C289.899532,28.6782693 284.659532,26.1812693 271.892532,25.3082693 C270.339532,25.2022693 267.549532,24.8472693 265.692532,24.5202693 C263.835532,24.1942693 261.441532,23.9262693 260.372532,23.9262693 C259.304532,23.9252693 256.874532,23.6652693 254.972532,23.3472693 C253.071532,23.0302693 249.535532,22.5772693 247.115532,22.3412693 C244.695532,22.1062693 242.310532,21.8052693 241.815532,21.6722693 C241.320532,21.5402693 240.920532,21.5882693 240.925486,21.7782693" id="path1" fill="#FCAC04"></path>
        </g>
    </g>
</svg>